<svg xmlns="http://www.w3.org/2000/svg" viewBox="0 0 64 64">
  <defs>
    <linearGradient id="bg" x1="8" y1="8" x2="56" y2="56" gradientUnits="userSpaceOnUse">
      <stop offset="0" stop-color="#2563eb" />
      <stop offset="0.5" stop-color="#4f46e5" />
      <stop offset="1" stop-color="#7c3aed" />
    </linearGradient>
  </defs>
  <rect x="4" y="4" width="56" height="56" rx="14" fill="url(#bg)" />
  <path
    fill="#ffffff"
    d="M32.02 30.75c-1.66 0-3 1.34-3 3 .14 9.03-1.02 17.74-3.46 26.44-.34 1.22.27 3.81 2.89 3.81 1.31 0 2.51-.87 2.89-2.19 1.69-5.99 3.88-15.68 3.69-28.07 0-1.65-1.34-2.99-3-2.99zm-.11-10.22c-7.66-.01-13.01 5.89-12.91 12.65.09 5.99-.47 11.99-1.67 17.82-.34 1.62.71 3.21 2.33 3.54 1.63.33 3.21-.71 3.54-2.33 1.29-6.26 1.9-12.7 1.8-19.13-.05-3.24 2.49-6.56 6.81-6.54 3.91.06 7.14 3.17 7.2 6.93.1 6.01-.35 12.04-1.33 17.94-.27 1.63.84 3.18 2.47 3.45 2.5.42 3.35-1.89 3.45-2.47 1.03-6.25 1.51-12.65 1.41-19.01-.11-6.98-5.99-12.73-13.11-12.85zm-13.84-2.48c-1.29-1.04-3.17-.85-4.22.44-3.2 3.94-4.92 8.91-4.84 14 .07 4.7-.31 9.41-1.14 14.01-.29 1.63.79 3.19 2.42 3.49 2.51.44 3.38-1.85 3.49-2.42.9-4.98 1.31-10.08 1.23-15.17-.06-3.73 1.15-7.23 3.5-10.12 1.05-1.29.85-3.17-.44-4.23zm13.68-7.79c-1.93-.05-3.86.18-5.72.62-1.61.38-2.61 2-2.23 3.61.38 1.61 2 2.6 3.61 2.23 1.38-.33 2.81-.47 4.25-.46 9.43.14 17.22 7.69 17.36 16.82.07 4.74-.16 9.51-.7 14.2-.19 1.65.99 3.14 2.64 3.32 2.09.24 3.19-1.49 3.32-2.64.49-4.25.73-9.24.74-14.98-.2-12.34-10.64-22.54-23.27-22.72zm31.51 15.18c-.36-1.62-1.94-2.65-3.58-2.28-1.62.36-2.64 1.96-2.28 3.58.59 2.68.61 4.68.59 7.7-.01 1.66 1.32 3.01 2.98 3.03h.02c1.65 0 2.99-1.33 3-2.98.02-2.77.05-5.51-.73-9.05zm-5.02-11.34C52.16 5.18 42.2-.09 31.6.07 22.88-.03 14.81 3.19 8.81 9.19 3.01 14.99-.11 22.69.02 30.89L0 33.57c-.05 1.66 1.25 3.04 2.91 3.09h.09c1.62 0 2.95-1.29 3-2.91l.02-2.95c-.1-6.56 2.4-12.73 7.03-17.38 4.85-4.85 11.42-7.46 18.46-7.36 8.68.13 16.84 4.44 21.83 11.55.95 1.36 2.82 1.68 4.18.73 1.36-.95 1.68-2.83.73-4.18z"
  />
</svg>
