<svg xmlns="http://www.w3.org/2000/svg" viewBox="0 0 841.9 595.3"><g fill="#61DAFB"><path d="M666.3 296.5c0-32.5-40.7-63.3-103.1-82.4 14.4-63.6 8-114.2-20-130.4-6.5-3.8-14.1-5.6-22.4-5.6v22.3c4.6 0 8.3.6 11.4 1.9 13.6 7.8 19.5 37.5 14.9 75.7-1.1 9.4-2.9 19.3-5.1 29.4-19.6-4.8-41-8.5-63.5-10.9-13.5-18.5-27.5-35.3-41.6-50 32.6-30.3 63.2-46.9 84-46.9V78c-27.5 0-63.5 19.6-99.9 53.6-36.4-33.8-72.4-53.2-99.9-53.2v22.3c20.7 0 51.4 16.5 84 46.6-14 14.7-28 31.4-41.3 49.9-22.6 2.4-44 6.1-63.6 11-2.3-10-4-19.7-5.2-29-4.7-38.2 1.1-67.9 14.6-75.8 3-1.3 6.9-2 11.5-2V78c-8.4 0-16 1.8-22.6 5.6-28.1 16.2-34.4 66.7-19.9 130.1-62.5 19.2-103.4 49.9-103.4 82.3 0 32.5 40.7 63.3 103.1 82.4-14.4 63.6-8 114.2 20 130.4 6.5 3.8 14.1 5.6 22.4 5.6 27.5 0 63.5-19.6 99.9-53.6 36.4 33.8 72.4 53.2 99.9 53.2 8.4 0 16-1.8 22.6-5.6 28.1-16.2 34.4-66.7 19.9-130.1 62-19.1 102.5-49.9 102.5-82.4zM565.2 384.9c-3.9 12.9-8.3 26.2-13.1 39.8-4.6-13.4-8.8-26.6-12.6-39.4 4.3-13 8.5-26.1 12.5-39.2 4.1 13.1 8.2 26.2 12.2 39.8zM520.5 430c-5.3 13.4-10.8 26.8-16.5 40.1-4.4-12.8-8.6-25.7-12.6-38.6 4-12.9 8.2-25.8 12.6-38.6 5.4 13.2 10.8 26.5 16.5 40.1zM476 470.3c-5.2 12.2-10.5 24.4-15.9 36.5-4.2-12.1-8.2-24.2-12.1-36.2 3.9-12 7.9-24.1 12.1-36.2 5.2 12 10.5 24.2 15.9 36.5z"/><path d="M666.3 296.5c0-32.5-40.7-63.3-103.1-82.4 14.4-63.6 8-114.2-20-130.4-6.5-3.8-14.1-5.6-22.4-5.6v22.3c4.6 0 8.3.6 11.4 1.9 13.6 7.8 19.5 37.5 14.9 75.7-1.1 9.4-2.9 19.3-5.1 29.4-19.6-4.8-41-8.5-63.5-10.9-13.5-18.5-27.5-35.3-41.6-50 32.6-30.3 63.2-46.9 84-46.9V78c-27.5 0-63.5 19.6-99.9 53.6-36.4-33.8-72.4-53.2-99.9-53.2v22.3c20.7 0 51.4 16.5 84 46.6-14 14.7-28 31.4-41.3 49.9-22.6 2.4-44 6.1-63.6 11-2.3-10-4-19.7-5.2-29-4.7-38.2 1.1-67.9 14.6-75.8 3-1.3 6.9-2 11.5-2V78c-8.4 0-16 1.8-22.6 5.6-28.1 16.2-34.4 66.7-19.9 130.1-62.5 19.2-103.4 49.9-103.4 82.3 0 32.5 40.7 63.3 103.1 82.4-14.4 63.6-8 114.2 20 130.4 6.5 3.8 14.1 5.6 22.4 5.6 27.5 0 63.5-19.6 99.9-53.6 36.4 33.8 72.4 53.2 99.9 53.2 8.4 0 16-1.8 22.6-5.6 28.1-16.2 34.4-66.7 19.9-130.1 62-19.1 102.5-49.9 102.5-82.4z"/></g></svg>
